<svg viewBox="0 0 108 74" version="1.1" focusable="false" xmlns="http://www.w3.org/2000/svg" xmlns:xlink="http://www.w3.org/1999/xlink">
    <g stroke="none" stroke-width="1" fill="none" fill-rule="evenodd">
        <g transform="translate(8,26)">
            <g>
                <rect stroke-opacity="0.2" stroke="#979797" stroke-width="1.5" x="0.5" y="0.5" width="17" height="17"></rect>
                <polygon id="Rectangle-624" fill="#666666" fill-rule="evenodd" points="7.1,8.3 8.2,9.4 10.8,5.7 14.5,11.5 4.9,11.5"></polygon>
                <circle fill="#666666" fill-rule="evenodd" cx="6.7" cy="5.9" r="1"></circle>
            </g>
            <rect fill="#9e9e9e" x="23" y="1" width="15" height="2.5"></rect>
            <rect fill="#e0e0e0" x="23" y="8" width="20" height="1.5"></rect>
            <rect fill="#e0e0e0" x="23" y="14" width="20" height="1.5"></rect>
        </g>
        <g transform="translate(57,26)">
            <g>
                <rect stroke-opacity="0.2" stroke="#979797" stroke-width="1.5" x="0.5" y="0.5" width="17" height="17"></rect>
                <polygon id="Rectangle-624" fill="#666666" fill-rule="evenodd" points="7.1,8.3 8.2,9.4 10.8,5.7 14.5,11.5 4.9,11.5"></polygon>
                <circle fill="#666666" fill-rule="evenodd" cx="6.7" cy="5.9" r="1"></circle>
            </g>
            <rect fill="#9e9e9e" x="23" y="1" width="15" height="2.5"></rect>
            <rect fill="#e0e0e0" x="23" y="8" width="20" height="1.5"></rect>
            <rect fill="#e0e0e0" x="23" y="14" width="20" height="1.5"></rect>
        </g>        
    </g>
</svg>