<svg viewBox="0 0 108 74" version="1.1" focusable="false" xmlns="http://www.w3.org/2000/svg" xmlns:xlink="http://www.w3.org/1999/xlink">
    <g stroke="none" stroke-width="1" fill="none" fill-rule="evenodd">
        <g transform="translate(8.000000, 13.000000)">
            <rect stroke-opacity="0.2" stroke="#979797" stroke-width="1.5" x="0.5" y="0.5" width="23" height="23"></rect>
            <polygon fill="#666666" fill-rule="evenodd" points="8.4 12.1243675 10.0609421 13.5178475 13.2013314 9 17.6923077 16 6 16"></polygon>
            <circle id="Oval-10" fill="#666666" fill-rule="evenodd" cx="8.46153846" cy="8.23076923" r="1.23076923"></circle>
        </g>
        <rect fill="#9E9E9E" x="8" y="43" width="24" height="2.5"></rect>
        <rect fill="#E0E0E0" x="8" y="51" width="24" height="1.5"></rect>
        <rect fill="#E0E0E0" x="8" y="56" width="24" height="1.5"></rect>
        <rect fill="#E0E0E0" x="11" y="61" width="18" height="1.5"></rect>
        <g transform="translate(42.000000, 13.000000)">
            <rect stroke-opacity="0.2" stroke="#979797" stroke-width="1.5" x="0.5" y="0.5" width="23" height="23"></rect>
            <polygon fill="#666666" fill-rule="evenodd" points="8.4 12.1243675 10.0609421 13.5178475 13.2013314 9 17.6923077 16 6 16"></polygon>
            <circle id="Oval-10" fill="#666666" fill-rule="evenodd" cx="8.46153846" cy="8.23076923" r="1.23076923"></circle>
        </g>
        <rect fill="#9E9E9E" x="42" y="43" width="24" height="2.5"></rect>
        <rect fill="#E0E0E0" x="42" y="51" width="24" height="1.5"></rect>
        <rect fill="#E0E0E0" x="42" y="56" width="24" height="1.5"></rect>
        <rect fill="#E0E0E0" x="45" y="61" width="18" height="1.5"></rect>
        <g transform="translate(76.000000, 13.000000)">
            <rect stroke-opacity="0.2" stroke="#979797" stroke-width="1.5" x="0.5" y="0.5" width="23" height="23"></rect>
            <polygon fill="#666666" fill-rule="evenodd" points="8.4 12.1243675 10.0609421 13.5178475 13.2013314 9 17.6923077 16 6 16"></polygon>
            <circle id="Oval-10" fill="#666666" fill-rule="evenodd" cx="8.46153846" cy="8.23076923" r="1.23076923"></circle>
        </g>
        <rect fill="#9E9E9E" x="76" y="43" width="24" height="2.5"></rect>
        <rect fill="#E0E0E0" x="76" y="51" width="24" height="1.5"></rect>
        <rect fill="#E0E0E0" x="76" y="56" width="24" height="1.5"></rect>
        <rect fill="#E0E0E0" x="79" y="61" width="18" height="1.5"></rect>
    </g>
</svg>