<svg viewBox="0 0 108 74" version="1.1" focusable="false" xmlns="http://www.w3.org/2000/svg" xmlns:xlink="http://www.w3.org/1999/xlink">
    <g stroke="none" stroke-width="1" fill="none" fill-rule="evenodd" transform="translate(5.000000, 24.000000)">
        <g transform="translate(0.000000, 0.000000)">
            <rect stroke-opacity="0.2" stroke="#979797" stroke-width="1.5" x="0.5" y="0.5" width="21" height="21"></rect>
            <polygon fill="#666666" fill-rule="evenodd" points="7.37824028 10.1243675 9.06094211 11.5178475 12.2013314 7 16.6923077 14 5 14"></polygon>
            <circle fill="#666666" fill-rule="evenodd" cx="7.23076923" cy="7.23076923" r="1.23076923"></circle>
            <rect id="Rectangle-2" fill="#9E9E9E" x="5" y="25" width="12" height="1.5"></rect>
        </g>
        <g transform="translate(50.000000, 0.000000)">
            <rect stroke-opacity="0.2" stroke="#979797" stroke-width="1.5" x="0.5" y="0.5" width="21" height="21"></rect>
            <polygon fill="#666666" fill-rule="evenodd" points="7.37824028 10.1243675 9.06094211 11.5178475 12.2013314 7 16.6923077 14 5 14"></polygon>
            <circle fill="#666666" fill-rule="evenodd" cx="7.23076923" cy="7.23076923" r="1.23076923"></circle>
            <rect fill="#9E9E9E" x="5" y="25" width="12" height="1.5"></rect>
        </g>
        <g transform="translate(75.000000, 0.000000)">
            <rect stroke-opacity="0.2" stroke="#979797" stroke-width="1.5" x="0.5" y="0.5" width="21" height="21"></rect>
            <polygon fill="#666666" fill-rule="evenodd" points="7.37824028 10.1243675 9.06094211 11.5178475 12.2013314 7 16.6923077 14 5 14"></polygon>
            <circle fill="#666666" fill-rule="evenodd" cx="7.23076923" cy="7.23076923" r="1.23076923"></circle>
            <rect fill="#9E9E9E" x="5" y="25" width="12" height="1.5"></rect>
        </g>
        <g transform="translate(25.000000, 0.000000)">
            <rect stroke-opacity="0.2" stroke="#979797" stroke-width="1.5" x="0.5" y="0.5" width="21" height="21"></rect>
            <polygon fill="#666666" fill-rule="evenodd" points="7.37824028 10.1243675 9.06094211 11.5178475 12.2013314 7 16.6923077 14 5 14"></polygon>
            <circle fill="#666666" fill-rule="evenodd" cx="7.23076923" cy="7.23076923" r="1.23076923"></circle>
            <rect fill="#9E9E9E" x="5" y="25" width="12" height="1.5"></rect>
        </g>
    </g>
</svg>